<?xml version="1.0" encoding="utf-8"?>
<!-- Generator: Adobe Illustrator 24.2.0, SVG Export Plug-In . SVG Version: 6.00 Build 0)  -->
<svg version="1.1" id="Layer_1" xmlns="http://www.w3.org/2000/svg" xmlns:xlink="http://www.w3.org/1999/xlink" x="0px" y="0px"
	 viewBox="0 0 32 32" style="enable-background:new 0 0 32 32;" xml:space="preserve">
<style type="text/css">
	.st0{fill:#232323;}
</style>
<g>
	<g>
		<path class="st0" d="M18.1,28.9l1.2,2.3c1.5-0.8,10.2-5.7,10.2-12.8c-0.1-4.3-4.5-6.1-8-7.6l-0.4-0.2c-2.5-1.1-4.9-2.2-4.9-3.6
			c0-1.5,3.3-4.5,5.9-5.8l-0.5,0C20,1.3,8,2.9,8,9.2c0,3.3,2.3,4.7,4.2,5.7l0.1,0c1.8,1.1,2.8,1.7,2.7,3.2c-0.1,2-6.6,4.8-11.1,6
			l0.7,2.4c11.6-3,12.9-7,13-8.2c0.2-2.9-2-4.3-4-5.5c-1.8-1.1-3-1.9-3-3.6c0-1.2,1-2.4,2.8-3.4l0.6-0.3l-0.2,0.6
			c-0.1,0.3-0.1,0.6-0.1,0.9c0.1,3.2,3.6,4.7,6.9,6.1c3.9,1.6,6.5,2.9,6.5,5.2C27,23.6,19.8,28.1,18.1,28.9z"/>
	</g>
</g>
</svg>
