<?xml version="1.0" encoding="utf-8"?>
<!-- Generator: Adobe Illustrator 24.2.0, SVG Export Plug-In . SVG Version: 6.00 Build 0)  -->
<svg version="1.1" id="Layer_1" focusable="false" xmlns="http://www.w3.org/2000/svg" xmlns:xlink="http://www.w3.org/1999/xlink"
	 x="0px" y="0px" viewBox="0 0 512 512" style="enable-background:new 0 0 512 512;" xml:space="preserve">
<style type="text/css">
	.st0{fill:#232323;}
</style>
<path class="st0" d="M118.5,369.2c-2.8-10.2-11.8-17.1-22.3-17.2c-11.6,0.7-19.7,6.8-22.7,17.1c-4.7,16.3-11.8,26.9-18.8,37.1
	c-8.6,12.7-17.4,25.8-17.4,45.3c0,33.4,26.3,60.5,58.7,60.5s58.7-27.1,58.7-60.5c0-19.6-8.8-32.6-17.4-45.2
	C130.3,396,123.2,385.5,118.5,369.2L118.5,369.2z M96,480c-14.7,0-26.7-12.8-26.7-28.5c0-9.3,4.1-15.8,11.9-27.3
	c4.6-6.8,9.9-14.7,14.7-24.6c4.8,9.9,10.2,17.8,14.8,24.6c7.8,11.5,11.9,18,11.9,27.3C122.7,467.2,110.7,480,96,480z M278.5,369.2
	c-2.8-10.2-11.8-17.1-22.3-17.2H256c-10.5,0-19.5,6.8-22.5,17.1c-4.7,16.3-11.8,26.9-18.8,37.1c-8.6,12.7-17.4,25.8-17.4,45.3
	c0,33.4,26.3,60.5,58.7,60.5s58.7-27.1,58.7-60.5c0-19.6-8.8-32.6-17.4-45.2C290.3,396,283.2,385.5,278.5,369.2L278.5,369.2z
	 M256,480c-14.7,0-26.7-12.8-26.7-28.5c0-9.3,4.1-15.8,11.9-27.3c4.6-6.8,9.9-14.7,14.7-24.6c4.8,9.9,10.2,17.8,14.8,24.6
	c7.8,11.5,11.9,18,11.9,27.3C282.7,467.2,270.7,480,256,480L256,480z M438.5,369.2c-2.8-10.2-11.8-17.1-22.3-17.2
	c-10.4,0.7-19.7,6.8-22.7,17.1c-4.7,16.3-11.8,26.9-18.8,37.1c-8.6,12.7-17.4,25.8-17.4,45.3c0,33.4,26.3,60.5,58.7,60.5
	s58.7-27.1,58.7-60.5c0-19.6-8.8-32.6-17.4-45.2C450.3,396,443.2,385.5,438.5,369.2L438.5,369.2z M416,480
	c-14.7,0-26.7-12.8-26.7-28.5c0-9.3,4.1-15.8,11.9-27.3c4.6-6.8,9.9-14.7,14.7-24.6c4.8,9.9,10.2,17.8,14.8,24.6
	c7.8,11.5,11.9,18,11.9,27.3C442.7,467.2,430.7,480,416,480L416,480z M415.7,112.3C411.8,67.4,373.9,32,328,32
	c-17.8,0-34.8,5.3-49.2,15.2C256.3,17.7,221.5,0,184,0C117.8,0,64,53.8,64,120v0.4c-38.3,16-64,53.5-64,95.6
	c0,57.3,46.7,104,104,104h304c57.3,0,104-46.7,104-104C512,161.2,469.4,116.2,415.7,112.3L415.7,112.3z M408,288H104
	c-39.7,0-72-32.3-72-72c0-32.3,21.9-60.7,53.3-69.2l13.3-3.6l-2-17.2c-0.3-2-0.6-4-0.6-6c0-48.5,39.5-88,88-88
	c32.2,0,61.8,17.9,77.2,46.8l10.6,19.8L287,82.1C297.9,70.4,312.4,64,328,64c30.9,0,56,25.1,56,56c0,1.6-0.3,3.1-0.8,6.9l-2.5,20
	l23.5-2.4c1.2-0.2,2.5-0.4,3.8-0.4c39.7,0,72,32.3,72,72S447.7,288,408,288z"/>
</svg>
