<?xml version="1.0" encoding="utf-8"?>
<!-- Generator: Adobe Illustrator 24.2.0, SVG Export Plug-In . SVG Version: 6.00 Build 0)  -->
<svg version="1.1" id="Layer_1" focusable="false" xmlns="http://www.w3.org/2000/svg" xmlns:xlink="http://www.w3.org/1999/xlink"
	 x="0px" y="0px" viewBox="0 0 512 528.9" style="enable-background:new 0 0 512 528.9;" xml:space="preserve">
<style type="text/css">
	.st0{fill:#232323;}
</style>
<path class="st0" d="M220.6,16.1c-4.1,4.1-7.4,9-9.8,14.8L52.4,460.6c-18.1,49.8,43,88.2,79.2,52L256,388.2l124.4,124.4
	c21.2,21.2,51,16.8,68.4-0.6c12.2-12.2,18.3-30.9,10.8-51.4L301.2,30.9C287.8-1.8,243.4-6.7,220.6,16.1z M271.2,41.9l158.3,429.6
	c2.6,7.1,1.4,13.1-3.4,17.9c-4.1,4.1-14.2,9.5-23.1,0.6L256,343L109,490c-8.1,8.1-16.6,4.1-19.9,2c-4.3-2.7-10.8-9-6.6-20.4
	L240.3,43.1c0.7-1.7,1.6-3.1,2.9-4.3c3.8-3.8,10.7-5.5,17.1-4.3C264.2,35.2,269.3,37.4,271.2,41.9z"/>
</svg>
